<svg width="43" height="43" viewBox="0 0 43 43" fill="none" xmlns="http://www.w3.org/2000/svg">
<path d="M21.5 0.0625C27.1856 0.0625 32.6383 2.32109 36.6586 6.3414C40.6789 10.3617 42.9375 15.8144 42.9375 21.5C42.9375 27.1856 40.6789 32.6383 36.6586 36.6586C32.6383 40.6789 27.1856 42.9375 21.5 42.9375C15.8144 42.9375 10.3617 40.6789 6.3414 36.6586C2.32109 32.6383 0.0625 27.1856 0.0625 21.5C0.0625 15.8144 2.32109 10.3617 6.3414 6.3414C10.3617 2.32109 15.8144 0.0625 21.5 0.0625ZM18.8295 25.7293L14.0673 20.9641C13.8966 20.7933 13.6939 20.6579 13.4709 20.5655C13.2478 20.4731 13.0087 20.4256 12.7673 20.4256C12.5258 20.4256 12.2868 20.4731 12.0637 20.5655C11.8406 20.6579 11.638 20.7933 11.4672 20.9641C11.1225 21.3089 10.9288 21.7765 10.9288 22.2641C10.9288 22.7517 11.1225 23.2193 11.4672 23.5641L17.531 29.6279C17.7012 29.7995 17.9038 29.9356 18.1269 30.0286C18.35 30.1215 18.5893 30.1693 18.831 30.1693C19.0727 30.1693 19.312 30.1215 19.5352 30.0286C19.7583 29.9356 19.9608 29.7995 20.1311 29.6279L32.6873 17.0686C32.8603 16.8985 32.9979 16.696 33.0923 16.4725C33.1866 16.249 33.2357 16.0091 33.2369 15.7665C33.238 15.524 33.1911 15.2836 33.0988 15.0593C33.0066 14.8349 32.8709 14.6311 32.6994 14.4594C32.528 14.2878 32.3243 14.1518 32.1001 14.0593C31.8759 13.9668 31.6356 13.9197 31.393 13.9205C31.1504 13.9213 30.9104 13.9702 30.6869 14.0642C30.4633 14.1583 30.2605 14.2957 30.0903 14.4685L18.8295 25.7293Z" fill="#000048"/>
</svg>
